<?xml version="1.0" encoding="iso-8859-1"?>
<!-- Uploaded to: SVG Repo, www.svgrepo.com, Generator: SVG Repo Mixer Tools -->
<svg height="800px" width="800px" version="1.1" id="Layer_1" xmlns="http://www.w3.org/2000/svg" xmlns:xlink="http://www.w3.org/1999/xlink" 
	 viewBox="0 0 512 512" xml:space="preserve">
<path style="fill:#C69F75;" d="M320.673,51.2H191.326V8.084h129.347V51.2z"/>
<path style="fill:#EFDDAB;" d="M450.02,148.211v282.102c0,5.717-2.271,11.2-6.314,15.244l-52.045,52.045
	c-4.043,4.043-9.526,6.314-15.244,6.314H135.581c-5.717,0-11.2-2.271-15.244-6.314l-52.045-52.045
	c-4.043-4.043-6.314-9.526-6.314-15.244V148.211c0-11.906,9.651-21.558,21.558-21.558h75.453V29.642l21.558-21.558h21.558v118.568
	h107.789V8.084h21.558l21.558,21.558v97.011h75.453C440.369,126.653,450.02,136.304,450.02,148.211z"/>
<path style="fill:#DBCBA1;" d="M255.999,503.916H135.581c-5.717,0-11.2-2.271-15.244-6.314l-52.045-52.045
	c-4.043-4.043-6.314-9.526-6.314-15.244V148.211c0-11.906,9.651-21.558,21.558-21.558h75.453V29.642l21.558-21.558h21.558v118.568
	h53.895V503.916z"/>
<path style="fill:#91F18B;" d="M255.999,315.284v-16.168c0-35.718,28.955-64.674,64.674-64.674h21.558V256
	c0,35.718-28.956,64.674-64.674,64.674h-16.168C258.413,320.674,255.999,318.26,255.999,315.284z"/>
<path style="fill:#6BAF6E;" d="M255.999,320.674h-21.558c-35.718,0-64.674-28.956-64.674-64.674v-21.558h21.558
	c35.718,0,64.674,28.955,64.674,64.674V320.674z"/>
<path d="M428.463,118.568h-67.368V29.642c0-2.144-0.852-4.199-2.368-5.717L337.168,2.367C335.653,0.852,333.596,0,331.452,0H180.547
	c-2.144,0-4.201,0.852-5.716,2.367l-21.558,21.558c-1.517,1.518-2.368,3.573-2.368,5.717v88.926H83.536
	c-16.345,0-29.642,13.298-29.642,29.642v282.102c0,7.918,3.083,15.362,8.682,20.961l52.046,52.045
	c5.599,5.598,13.043,8.681,20.96,8.681h240.836c7.916,0,15.36-3.083,20.96-8.681l52.045-52.045
	c5.599-5.599,8.682-13.044,8.682-20.961V148.211C458.105,131.866,444.808,118.568,428.463,118.568z M210.189,16.168h91.621v26.947
	h-67.368c-4.465,0-8.084,3.618-8.084,8.084s3.62,8.084,8.084,8.084h67.368v59.284h-91.621V16.168z M441.936,430.313
	c0,3.599-1.401,6.984-3.946,9.527l-52.044,52.045c-2.546,2.544-5.93,3.946-9.527,3.946H135.582c-3.599,0-6.983-1.401-9.528-3.946
	L74.009,439.84c-2.545-2.544-3.946-5.928-3.946-9.527V148.211c0-7.43,6.044-13.474,13.474-13.474h75.453
	c4.465,0,8.084-3.618,8.084-8.084V32.99l16.822-16.822h10.126v102.4h-2.695c-4.465,0-8.084,3.618-8.084,8.084
	c0,4.466,3.62,8.084,8.084,8.084h118.568c4.465,0,8.084-3.618,8.084-8.084V16.168h10.126l16.822,16.822v85.578h-2.695
	c-4.465,0-8.084,3.618-8.084,8.084c0,4.466,3.62,8.084,8.084,8.084h86.232c7.43,0,13.474,6.044,13.474,13.474V430.313z
	 M342.231,226.358h-21.558c-28.12,0-52.567,16.037-64.674,39.444c-12.107-23.408-36.554-39.444-64.674-39.444h-21.558
	c-4.465,0-8.084,3.618-8.084,8.084V256c0,4.466,3.62,8.084,8.084,8.084c4.465,0,8.084-3.618,8.084-8.084v-13.474h13.474
	c31.204,0,56.589,25.387,56.589,56.589v13.474h-13.474c-20.142,0-38.926-10.845-49.024-28.301
	c-2.236-3.864-7.182-5.185-11.046-2.949c-3.864,2.236-5.186,7.181-2.95,11.046c12.979,22.435,37.127,36.372,63.02,36.372h13.474
	v56.589c0,4.466,3.62,8.084,8.084,8.084s8.084-3.618,8.084-8.084v-56.589h13.474c40.119,0,72.758-32.639,72.758-72.758v-21.558
	C350.315,229.976,346.696,226.358,342.231,226.358z M334.147,256c0,31.203-25.385,56.589-56.589,56.589h-13.474v-13.474
	c0-31.203,25.385-56.589,56.589-56.589h13.474V256z"/>
</svg>